HIERARCHY
ROOT root
{
	OFFSET 0.000000 0.000000 0.000000
	CHANNELS 6 Xposition Yposition Zposition Zrotation Yrotation Xrotation
	JOINT lhip
	{
		OFFSET 0.058581 -0.082280 -0.017664
		CHANNELS 3 Zrotation Yrotation Xrotation
		JOINT lknee
		{
			OFFSET 0.043451 -0.386469 0.008037
			CHANNELS 3 Zrotation Yrotation Xrotation
			JOINT lankle
			{
				OFFSET -0.014790 -0.426874 -0.037428
				CHANNELS 3 Zrotation Yrotation Xrotation
				JOINT ltoe
				{
					OFFSET 0.041054 -0.060286 0.122042
					CHANNELS 3 Zrotation Yrotation Xrotation
					End Site
					{
						OFFSET 0.000000 0.000000 0.000000
					}
				}
			}
		}
	}
	JOINT rhip
	{
		OFFSET -0.060310 -0.090513 -0.013543
		CHANNELS 3 Zrotation Yrotation Xrotation
		JOINT rknee
		{
			OFFSET -0.043257 -0.383688 -0.004843
			CHANNELS 3 Zrotation Yrotation Xrotation
			JOINT rankle
			{
				OFFSET 0.019056 -0.420046 -0.034562
				CHANNELS 3 Zrotation Yrotation Xrotation
				JOINT rtoe
				{
					OFFSET -0.034840 -0.062106 0.130323
					CHANNELS 3 Zrotation Yrotation Xrotation
					End Site
					{
						OFFSET 0.000000 0.000000 0.000000
					}
				}
			}
		}
	}
	JOINT lowerback
	{
		OFFSET 0.004439 0.124404 -0.038385
		CHANNELS 3 Zrotation Yrotation Xrotation
		JOINT upperback
		{
			OFFSET 0.004488 0.137956 0.026820
			CHANNELS 3 Zrotation Yrotation Xrotation
			JOINT chest
			{
				OFFSET -0.002265 0.056032 0.002855
				CHANNELS 3 Zrotation Yrotation Xrotation
				JOINT lowerneck
				{
					OFFSET -0.013390 0.211636 -0.033468
					CHANNELS 3 Zrotation Yrotation Xrotation
					JOINT upperneck
					{
						OFFSET 0.010113 0.088937 0.050410
						CHANNELS 3 Zrotation Yrotation Xrotation
						End Site
						{
							OFFSET 0.000000 0.000000 0.000000
						}
					}
				}
				JOINT lclavicle
				{
					OFFSET 0.071702 0.114000 -0.018898
					CHANNELS 3 Zrotation Yrotation Xrotation
					JOINT lshoulder
					{
						OFFSET 0.122921 0.045205 -0.019046
						CHANNELS 3 Zrotation Yrotation Xrotation
						JOINT lelbow
						{
							OFFSET 0.255332 -0.015649 -0.022946
							CHANNELS 3 Zrotation Yrotation Xrotation
							JOINT lwrist
							{
								OFFSET 0.265709 0.012698 -0.007375
								CHANNELS 3 Zrotation Yrotation Xrotation
								End Site
								{
									OFFSET 0.000000 0.000000 0.000000
								}
							}
						}
					}
				}
				JOINT rclavicle
				{
					OFFSET -0.082954 0.112472 -0.023707
					CHANNELS 3 Zrotation Yrotation Xrotation
					JOINT rshoulder
					{
						OFFSET -0.113228 0.046853 -0.008472
						CHANNELS 3 Zrotation Yrotation Xrotation
						JOINT relbow
						{
							OFFSET -0.260127 -0.014369 -0.031269
							CHANNELS 3 Zrotation Yrotation Xrotation
							JOINT rwrist
							{
								OFFSET -0.269108 0.006794 -0.006027
								CHANNELS 3 Zrotation Yrotation Xrotation
								End Site
								{
									OFFSET 0.000000 0.000000 0.000000
								}
							}
						}
					}
				}
			}
		}
	}
}
MOTION
Frames: 11
Frame Time: 0.033333
1.342832 -0.210624 0.999619 -37.565136 -1.634203 88.544436 -0.301578 -3.445613 -5.495000 -6.234832 -12.640454 16.482055 1.049489 6.190941 -17.704396 0.000000 -0.000000 0.000000 0.529603 -2.945120 -3.872459 1.246184 0.018725 16.093393 1.824078 -7.019526 -18.464685 0.000000 -0.000000 0.000000 2.404915 1.685627 10.399137 -0.931166 0.303483 -0.944557 -0.345528 0.787316 3.183197 -1.728931 24.166635 -5.749217 -2.998607 19.345252 7.672716 -23.057017 3.202197 -1.701991 -57.925205 -7.502742 8.922113 5.948324 -26.335475 4.159150 -3.424406 -8.863035 -16.055539 22.046903 -2.387239 1.251344 55.216859 9.031841 10.234194 -11.253648 17.430812 -13.924876 4.310536 3.891739 -20.465992 
1.337904 -0.211242 0.998664 -38.071139 -1.201999 88.380859 -1.044341 -3.199695 -4.470714 -3.951918 -11.469215 15.341101 1.863175 7.771867 -16.951660 0.000000 -0.000000 0.000000 1.356896 -2.615739 -3.425358 1.131445 0.525932 15.871092 1.694664 -7.362306 -18.459304 0.000000 -0.000000 0.000000 2.620224 1.799994 10.053244 -0.838909 0.496185 -0.897586 -0.153322 0.728646 3.382632 -1.400724 23.730939 -5.561752 -2.886054 19.343061 8.043808 -23.020675 3.605534 -1.602803 -58.592074 -6.886835 8.618464 5.784829 -24.009921 3.578856 -4.005042 -8.394343 -16.118173 22.031349 -2.524967 1.272153 55.112728 9.365380 10.341651 -11.685142 17.542935 -14.415635 4.606210 4.028637 -20.341809 
1.333032 -0.211020 0.997791 -38.377138 -1.007414 88.230572 -0.531048 -3.287691 -3.683944 -3.731568 -11.433442 14.360871 1.637864 7.845823 -16.309539 0.000000 -0.000000 0.000000 1.881473 -1.957877 -2.871596 1.076420 0.343535 15.371016 1.573059 -7.587342 -18.496218 0.000000 -0.000000 0.000000 2.170256 1.782787 9.753146 -0.636244 0.501757 -0.788003 0.246743 0.705997 3.384715 -1.079801 23.734979 -5.217369 -3.021305 19.340757 7.929627 -23.033152 3.873989 -1.503313 -58.941067 -6.420407 8.140436 5.705495 -21.476168 3.201099 -4.929817 -8.107639 -15.925841 22.184641 -2.659422 1.203796 55.021302 9.737954 10.415937 -11.906503 17.940361 -14.273288 5.021949 4.137399 -20.500641 
1.327902 -0.209375 0.998013 -38.953661 -1.322397 88.451328 0.220412 -3.245214 -3.703591 -4.990849 -11.252672 14.226115 1.404072 7.978833 -16.295080 0.000000 -0.000000 0.000000 1.948620 -2.492312 -2.891487 1.025476 1.298822 15.137577 1.279964 -7.463550 -18.541478 0.000000 -0.000000 0.000000 1.146149 2.231415 8.847419 -0.532245 0.326314 -0.618241 0.418752 0.666587 3.482715 -0.674109 23.992251 -4.846753 -2.805158 19.171180 7.994067 -22.872908 4.206620 -1.395569 -58.903182 -5.840141 7.767319 5.526553 -19.187128 3.066487 -4.565510 -7.858910 -16.214672 22.475730 -2.913371 1.259056 55.810194 9.930667 10.928712 -12.406404 19.060176 -13.510074 4.187450 3.690263 -21.054891 
1.325844 -0.209808 0.998345 -38.802518 -1.572355 88.279902 0.238356 -2.982467 -3.028693 -5.203953 -11.114767 13.449834 1.451855 7.887847 -16.079285 0.000000 -0.000000 0.000000 1.396100 -1.984798 -2.644098 1.542837 0.534735 15.326645 1.481236 -7.221467 -18.771776 0.000000 -0.000000 0.000000 0.909334 1.961657 8.768536 -0.725460 0.322599 -0.471834 0.255300 0.656039 3.382367 -0.309623 23.988805 -4.513417 -3.025073 18.997957 7.673713 -22.850670 4.385194 -1.338096 -58.740536 -5.731253 7.438021 5.663596 -18.220529 2.638112 -5.213903 -7.775434 -16.203780 22.479759 -3.112752 1.124954 56.673894 10.034939 10.821504 -12.948588 19.327151 -14.290351 4.445482 3.404684 -21.593253 
1.322400 -0.210022 0.998138 -38.697033 -1.735385 88.046506 0.047890 -2.445646 -2.087655 -4.636110 -11.392495 12.414037 1.319264 7.373820 -15.630393 0.000000 -0.000000 0.000000 1.543613 -2.286295 -2.047094 1.195517 0.736057 14.947602 1.399960 -7.103600 -18.953146 0.000000 -0.000000 0.000000 0.881176 1.868179 8.918877 -1.029293 0.294946 -0.619572 -0.055033 0.661799 3.259167 -0.347905 23.771800 -4.393607 -2.784816 18.614583 7.602285 -22.809434 4.602934 -1.398211 -58.201304 -5.476517 7.061018 5.549882 -17.453281 2.490678 -5.414683 -7.844480 -15.637720 22.517293 -3.345453 0.983051 57.768556 9.488371 11.120210 -13.141248 20.511218 -14.179827 4.416949 3.992695 -21.960958 
1.319783 -0.209683 0.997555 -38.657040 -1.737972 88.181334 -0.056641 -2.260558 -1.970344 -4.192911 -11.785216 12.124364 1.174353 7.414960 -15.617866 0.000000 -0.000000 0.000000 2.023452 -2.241455 -2.059166 0.625857 0.795252 14.908398 1.230851 -7.440856 -19.016079 0.000000 -0.000000 0.000000 0.872636 1.713295 8.515877 -1.138114 0.272342 -0.543982 -0.221429 0.936807 3.261447 -0.555705 23.446384 -4.136725 -2.663071 18.251476 7.566933 -22.958464 4.774102 -1.443546 -57.805179 -5.348777 6.925273 5.527843 -17.577759 2.268339 -5.155269 -7.629089 -15.279567 22.598651 -3.489578 0.914350 58.248613 9.068023 11.381069 -12.896797 21.585132 -13.700336 4.780062 4.223756 -21.994350 
1.317307 -0.208750 0.996359 -38.702418 -1.732276 88.305120 0.138543 -2.365890 -1.876771 -4.245857 -11.880064 11.823150 1.294551 7.698273 -15.613551 0.000000 -0.000000 0.000000 2.237489 -1.914807 -2.657844 0.648257 0.773765 15.999259 1.285750 -7.592802 -19.691518 0.000000 -0.000000 0.000000 0.828302 1.703386 8.459169 -1.194976 0.543363 -0.767079 -0.429582 1.141311 3.223414 -0.576294 22.832233 -4.293414 -2.336814 17.172204 8.421310 -22.994694 5.060782 -1.589820 -57.644536 -5.466800 6.968453 5.797393 -18.094377 1.725988 -4.547662 -7.472683 -15.308133 22.752602 -3.615558 0.938127 58.765357 8.266007 11.970351 -13.223383 22.867523 -13.037953 4.865606 4.585347 -21.777496 
1.314866 -0.207941 0.995711 -38.565299 -1.719015 88.267124 0.439317 -2.530227 -1.665773 -4.490082 -11.941155 11.580100 1.126890 7.855228 -15.662210 0.000000 -0.000000 0.000000 2.204952 -1.594755 -2.939000 1.083221 0.404287 16.793119 1.290410 -7.636479 -20.295660 0.000000 -0.000000 0.000000 0.647108 1.738751 8.667844 -1.231045 0.744508 -1.034125 -0.514751 1.176406 3.201598 -0.604250 21.612719 -4.277635 -1.936379 15.518430 9.095608 -22.954495 5.301694 -1.669453 -57.725569 -5.859668 6.936381 6.367730 -18.881410 0.901005 -4.120836 -7.586117 -16.089576 23.090309 -3.727935 0.700488 58.824766 7.929625 12.282020 -12.718753 23.298267 -11.964598 5.056869 4.429091 -21.366258 
1.312302 -0.206315 0.994964 -38.378822 -1.953849 88.483711 0.570959 -2.380840 -1.972244 -4.735866 -11.962801 11.612546 0.844697 7.582281 -15.570070 0.000000 -0.000000 0.000000 2.176182 -2.053019 -3.319804 1.037879 0.523086 17.139023 0.932580 -7.532853 -20.654793 0.000000 -0.000000 0.000000 0.127557 1.961725 8.588798 -1.190833 0.833725 -1.182198 -0.578452 1.203626 3.254155 -0.434122 18.994463 -4.294111 -1.683500 12.484965 10.602525 -22.975003 5.362757 -1.634300 -57.684977 -6.549282 7.189536 6.558666 -20.473300 0.175132 -2.969041 -7.809722 -17.165630 23.426524 -3.283212 0.760242 58.789049 7.834280 12.424226 -12.297059 22.764676 -11.308938 5.204571 4.475785 -20.849000 
1.309053 -0.205012 0.994910 -38.027678 -1.831120 88.355744 0.874808 -2.698139 -1.803224 -4.597401 -12.060621 11.620711 0.809142 7.573857 -15.569181 0.000000 -0.000000 0.000000 2.604239 -1.694496 -2.956032 0.919635 0.172995 16.959232 1.080899 -7.854773 -20.610475 0.000000 -0.000000 0.000000 -0.004488 2.004151 8.687597 -1.107036 0.914776 -1.141579 -0.736421 1.112104 3.157833 -0.058036 15.914022 -3.599861 -1.382933 9.333212 11.389786 -22.894233 5.326932 -1.339097 -57.663271 -7.283006 7.486688 6.852704 -21.860955 -0.239327 -3.024485 -7.907864 -17.564955 23.486883 -2.899902 0.581175 59.373067 7.522790 12.363901 -12.292920 21.941224 -11.206292 5.540637 4.305471 -20.512049 
